<?xml version="1.0" standalone="no"?>
<!DOCTYPE svg PUBLIC "-//W3C//DTD SVG 20010904//EN"
 "http://www.w3.org/TR/2001/REC-SVG-20010904/DTD/svg10.dtd">
<svg version="1.0" xmlns="http://www.w3.org/2000/svg"
 width="300.000000pt" height="304.000000pt" viewBox="0 0 300.000000 304.000000"
 preserveAspectRatio="xMidYMid meet">
<metadata>
  created on 8th march 2018
</metadata>
<g transform="translate(0.000000,304.000000) scale(0.100000,-0.100000)"
fill="#13307E" stroke="none">
<path d="M1265 3015 c-450 -73 -837 -342 -1068 -740 -96 -165 -173 -400 -183
-560 -3 -44 -7 -95 -9 -113 -2 -18 -1 -31 3 -28 4 2 7 -64 8 -148 0 -130 4
-165 27 -252 73 -280 204 -509 404 -707 508 -503 1300 -578 1889 -180 281 191
482 455 588 773 59 178 68 251 64 509 -4 206 -7 235 -31 326 -77 286 -203 505
-406 705 -207 204 -458 339 -746 402 -122 26 -413 33 -540 13z m518 -46 c292
-59 542 -193 752 -404 368 -367 512 -888 385 -1390 -143 -569 -616 -1000
-1195 -1090 -134 -21 -397 -16 -515 10 -605 133 -1048 591 -1156 1198 -22 125
-22 352 0 482 88 508 434 932 918 1124 92 36 259 78 363 90 116 14 329 5 448
-20z"/>
<path d="M1593 2925 c-8 -23 2 -28 26 -13 15 9 26 10 38 2 40 -25 20 -30 -104
-26 -77 2 -165 -2 -220 -10 -75 -11 -93 -12 -93 -1 0 19 34 33 82 34 l43 1
-35 9 c-62 14 -138 -19 -109 -48 6 -6 -19 -16 -63 -28 -116 -30 -328 -119
-328 -137 0 -11 7 -10 39 7 27 13 29 13 39 -10 9 -19 9 -25 0 -25 -6 0 -19 -7
-29 -16 -16 -14 -18 -14 -29 5 -14 27 -62 28 -81 2 -18 -25 -59 -38 -59 -18 0
18 27 42 70 60 24 10 29 16 16 16 -28 1 -103 -37 -110 -56 -4 -8 -1 -22 6 -30
10 -12 9 -17 -4 -24 -40 -23 -98 -78 -87 -85 6 -3 15 0 20 7 7 12 11 12 24 -1
13 -14 13 -18 -1 -38 -17 -25 -36 -30 -28 -7 5 11 -1 15 -25 15 -30 0 -71 -29
-71 -50 0 -18 17 -10 34 15 18 28 36 33 36 10 0 -8 -10 -19 -21 -26 -17 -9
-19 -13 -8 -20 9 -5 21 -1 34 11 25 23 35 25 35 6 0 -19 -24 -37 -54 -40 -41
-4 -43 -16 -4 -16 47 0 91 34 85 66 -5 30 17 52 30 29 6 -10 16 -13 27 -9 15
6 13 12 -19 44 -38 39 -39 52 -6 70 16 8 23 3 45 -30 14 -22 33 -40 41 -40 22
0 19 11 -15 57 -35 47 -31 53 35 57 44 2 44 2 28 -17 -17 -18 -16 -18 17 -15
19 2 35 9 35 15 0 7 11 20 24 29 22 16 24 16 33 0 8 -15 38 -23 38 -11 0 3 -9
23 -20 45 -11 22 -20 43 -20 47 0 11 117 56 129 49 23 -14 18 -44 -11 -61 -34
-19 -53 -11 -24 11 14 10 17 17 9 25 -7 7 -18 4 -36 -13 -25 -23 -25 -24 -6
-36 24 -16 61 -15 78 1 11 10 14 10 18 0 3 -7 13 -13 23 -13 18 0 18 2 -2 50
-23 55 -23 54 9 64 20 6 24 2 34 -39 10 -41 31 -66 44 -53 3 3 -2 26 -11 52
-14 41 -14 50 -3 57 25 15 38 10 45 -18 9 -47 23 -73 37 -73 12 0 12 8 1 52
-8 28 -13 53 -11 54 1 1 32 7 69 11 58 8 67 7 71 -7 3 -13 -4 -16 -39 -16 -24
1 -43 -3 -43 -9 0 -6 19 -9 42 -7 l42 2 -44 -23 c-28 -15 -40 -27 -32 -31 6
-4 27 1 45 12 33 20 34 20 39 1 3 -10 12 -19 20 -19 12 0 13 8 6 43 -13 69
-15 67 51 67 46 0 60 -3 60 -15 0 -10 -8 -13 -27 -9 -16 2 -34 0 -42 -5 -22
-15 -5 -41 28 -41 20 0 30 -6 34 -20 8 -31 36 -25 34 7 -2 22 3 29 21 31 24 4
29 -7 10 -26 -9 -9 -8 -12 5 -12 10 0 20 7 23 15 9 22 -16 47 -42 42 -17 -3
-22 1 -21 15 1 14 9 18 42 18 59 0 67 -9 63 -65 -2 -30 1 -50 8 -52 13 -4 24
28 24 69 0 20 6 28 23 31 l22 4 -22 8 c-13 4 -23 13 -23 20 0 20 -49 55 -77
55 -13 0 -26 -7 -30 -15z m-68 -105 c-3 -5 -15 -10 -26 -10 -10 0 -19 5 -19
10 0 6 12 10 26 10 14 0 23 -4 19 -10z m-707 -159 c3 -8 -1 -12 -9 -9 -7 2
-15 10 -17 17 -3 8 1 12 9 9 7 -2 15 -10 17 -17z"/>
<path d="M1126 2874 c-3 -8 1 -14 9 -14 20 0 28 17 11 23 -8 3 -17 -1 -20 -9z"/>
<path d="M1806 2846 c3 -9 13 -16 21 -16 10 0 13 -6 9 -16 -21 -54 -19 -61 31
-99 26 -20 51 -45 55 -56 4 -11 12 -17 18 -14 19 11 10 24 -40 62 -46 34 -50
40 -44 68 9 41 10 43 38 38 22 -5 23 -8 14 -35 -7 -20 -15 -27 -26 -23 -12 4
-13 3 -2 -10 23 -27 48 -18 56 20 3 19 9 35 13 35 24 -2 137 -67 134 -78 -4
-9 -12 -7 -30 8 -30 24 -56 26 -72 6 -20 -24 12 -63 54 -66 6 -1 13 -10 17
-21 11 -29 21 -23 42 26 15 37 22 44 37 40 40 -13 7 21 -39 39 -26 11 -69 30
-97 42 -27 13 -75 29 -105 37 -30 8 -63 18 -73 22 -13 6 -16 3 -11 -9z m238
-132 c9 -3 16 -10 16 -16 0 -14 -53 -5 -58 10 -4 13 16 16 42 6z"/>
<path d="M2100 2775 c0 -9 9 -15 21 -15 18 0 19 2 9 15 -7 8 -16 15 -21 15 -5
0 -9 -7 -9 -15z"/>
<path d="M1345 2694 c-11 -2 -45 -9 -75 -15 -354 -68 -674 -319 -830 -651 -81
-173 -117 -360 -107 -556 27 -534 406 -974 937 -1088 117 -25 343 -25 460 0
396 85 716 355 861 726 49 125 70 228 76 376 6 138 -6 245 -43 373 -123 424
-488 751 -922 826 -76 14 -305 19 -357 9z m290 -35 c129 -16 244 -51 370 -114
136 -67 219 -129 327 -244 357 -380 403 -959 112 -1398 -175 -264 -454 -441
-776 -493 -119 -19 -330 -8 -453 24 -134 35 -316 126 -423 212 -538 431 -570
1237 -70 1710 247 233 580 344 913 303z"/>
<path d="M1327 2586 c-32 -6 -57 -15 -55 -21 2 -5 13 -9 25 -7 20 2 23 -3 29
-48 5 -40 10 -50 23 -48 17 4 18 15 7 73 -6 33 -5 35 19 35 16 0 25 6 25 15 0
8 -3 14 -7 14 -5 -1 -34 -7 -66 -13z"/>
<path d="M1431 2553 c1 -61 10 -85 28 -74 19 12 6 121 -15 121 -10 0 -14 -13
-13 -47z"/>
<path d="M1490 2590 c0 -5 11 -10 25 -10 24 0 25 -3 25 -53 0 -41 4 -54 15
-54 11 0 15 13 15 54 0 52 0 53 30 53 17 0 30 5 30 10 0 6 -30 10 -70 10 -40
0 -70 -4 -70 -10z"/>
<path d="M1661 2546 c-15 -62 -15 -64 19 -81 35 -18 74 -19 88 -2 19 23 33 90
20 98 -18 12 -26 2 -33 -42 -8 -44 -23 -56 -53 -40 -17 9 -19 16 -11 48 12 52
11 63 -5 63 -8 0 -18 -19 -25 -44z"/>
<path d="M1148 2535 c-32 -18 -37 -51 -8 -60 10 -3 35 -3 55 1 22 4 35 2 35
-5 0 -18 -37 -31 -69 -25 -32 7 -44 -9 -15 -20 46 -18 117 12 112 47 -3 19
-10 22 -55 25 -29 2 -53 7 -53 13 0 9 9 12 50 13 14 1 27 6 30 11 8 16 -53 16
-82 0z"/>
<path d="M1830 2541 c0 -7 11 -16 25 -21 24 -9 25 -11 12 -37 -28 -55 -30 -73
-9 -73 14 0 23 12 32 46 7 25 18 43 24 40 43 -17 46 -18 46 -4 0 8 -22 22 -52
32 -29 9 -59 20 -65 23 -7 2 -13 0 -13 -6z"/>
<path d="M1041 2490 c-11 -6 -10 -14 8 -38 11 -17 21 -32 21 -35 0 -3 -22 3
-50 14 -27 10 -56 16 -65 13 -13 -5 -12 -13 11 -53 34 -59 40 -65 53 -56 8 4
5 17 -9 41 -25 39 -23 40 28 19 20 -9 47 -13 59 -10 l22 5 -30 53 c-17 28 -32
53 -33 54 -1 1 -8 -2 -15 -7z"/>
<path d="M1967 2429 c-16 -29 -25 -55 -20 -59 27 -23 103 -59 108 -50 3 5 -12
18 -35 30 -44 22 -43 21 -34 44 5 14 9 14 33 -2 44 -32 51 -34 51 -19 0 7 -16
21 -35 30 -24 11 -33 21 -29 32 5 12 13 10 50 -11 32 -19 44 -22 44 -12 0 8
-21 25 -47 38 -27 14 -50 26 -53 27 -3 2 -18 -20 -33 -48z"/>
<path d="M1400 2410 c-384 -48 -686 -326 -767 -705 -21 -99 -13 -314 16 -413
106 -364 427 -620 803 -639 440 -23 818 267 913 701 26 119 17 322 -20 436
-81 251 -245 437 -481 546 -132 62 -322 92 -464 74z m244 -45 c171 -30 309
-100 438 -223 124 -119 196 -241 240 -407 30 -110 29 -296 -1 -410 -79 -301
-325 -544 -621 -615 -116 -27 -284 -27 -400 0 -407 97 -690 501 -640 912 23
190 97 351 224 485 203 215 475 308 760 258z"/>
<path d="M1471 2177 c-12 -106 -25 -212 -28 -235 l-6 -44 42 21 41 21 0 -59
c0 -55 2 -59 25 -63 22 -5 29 2 56 49 l31 53 21 -26 21 -27 57 224 c31 123 55
226 53 228 -1 2 -53 -97 -115 -220 -62 -123 -114 -217 -116 -209 -1 8 -14 118
-28 244 -14 126 -27 231 -28 232 -2 2 -13 -83 -26 -189z m48 -184 c1 -24 -3
-43 -8 -43 -5 0 -16 -3 -25 -6 -13 -5 -16 2 -16 45 0 29 5 51 10 51 6 0 10 10
9 23 -1 12 -1 47 1 77 l2 55 13 -80 c8 -44 14 -99 14 -122z m191 102 c0 -14
-3 -24 -7 -24 -19 3 -27 -2 -15 -9 10 -7 9 -23 -5 -80 -15 -65 -18 -70 -33
-57 -13 11 -19 12 -28 3 -7 -7 -12 -8 -12 -3 0 12 89 195 95 195 3 0 5 -11 5
-25z m-136 -240 c-6 -16 -24 -21 -24 -7 0 11 11 22 21 22 5 0 6 -7 3 -15z"/>
<path d="M1211 2309 c-1 -3 24 -110 54 -238 30 -128 55 -235 55 -238 0 -3 -69
59 -152 138 -84 79 -168 157 -187 174 -23 20 9 -35 99 -170 73 -110 134 -201
135 -203 2 -2 11 15 21 37 11 22 22 41 25 41 3 0 20 -18 38 -40 29 -36 34 -38
56 -28 16 7 24 17 21 27 -3 9 -8 37 -12 64 l-6 47 27 -10 c15 -6 29 -9 30 -8
2 2 -44 95 -101 208 -56 113 -103 202 -103 199z m74 -189 c3 -5 1 -10 -4 -10
-6 0 -11 5 -11 10 0 6 2 10 4 10 3 0 8 -4 11 -10z m49 -90 c40 -79 43 -95 20
-104 -14 -5 -15 -15 -10 -58 9 -65 -1 -58 -14 8 -5 27 -16 81 -24 119 -15 70
-19 105 -12 105 2 0 20 -32 40 -70z m-224 -40 c0 -5 -2 -10 -4 -10 -3 0 -8 5
-11 10 -3 6 -1 10 4 10 6 0 11 -4 11 -10z m120 -130 c0 -30 -19 -65 -21 -40
-1 8 -1 19 0 23 1 5 -3 6 -8 3 -11 -7 -71 87 -71 112 0 15 -2 15 -10 2 -11
-17 -13 -10 -4 14 9 25 114 -80 114 -114z"/>
<path d="M2020 2163 c0 -5 -75 -75 -165 -158 -165 -150 -175 -165 -112 -165
15 0 27 -3 27 -6 0 -3 -16 -26 -36 -50 -35 -43 -36 -45 -19 -64 17 -19 18 -19
66 1 28 10 53 19 57 19 5 0 6 -16 4 -36 -5 -44 -21 -52 173 89 83 60 162 116
178 125 59 35 21 27 -88 -19 -63 -27 -167 -71 -230 -98 -64 -27 -115 -46 -113
-42 5 11 210 315 245 364 19 26 30 47 24 47 -6 0 -11 -3 -11 -7z m-148 -203
c-12 -16 -22 -34 -22 -40 0 -5 -4 -10 -8 -10 -5 0 -16 -16 -25 -36 -18 -36
-32 -39 -77 -13 -12 7 -11 8 4 9 11 0 17 3 13 6 -3 3 13 23 36 44 90 82 122
98 79 40z m173 -120 c-3 -5 -11 -10 -16 -10 -6 0 -7 5 -4 10 3 6 11 10 16 10
6 0 7 -4 4 -10z m-35 -16 c0 -11 -26 -32 -66 -52 -21 -12 -35 -21 -29 -22 5 0
-1 -7 -13 -16 -23 -16 -42 -12 -42 11 0 7 -5 15 -12 17 -6 2 22 18 63 35 74
31 99 38 99 27z m-260 -84 c0 -5 -4 -10 -10 -10 -5 0 -10 5 -10 10 0 6 5 10
10 10 6 0 10 -4 10 -10z"/>
<path d="M776 1940 c5 -5 96 -72 203 -150 l194 -141 -134 7 c-74 3 -185 9
-246 13 -62 3 -113 4 -113 1 0 -4 367 -112 438 -128 11 -3 13 3 10 25 -3 15
-8 35 -12 44 -6 15 -2 16 36 8 65 -12 75 -11 82 14 5 17 -3 30 -39 63 l-46 41
27 12 c15 6 25 13 23 15 -9 9 -431 184 -423 176z m217 -107 c9 -3 17 -9 17
-14 0 -5 3 -8 8 -7 4 2 35 -8 69 -21 61 -23 61 -23 51 -52 -10 -28 -10 -28
-39 -14 -16 9 -29 19 -29 23 0 5 -20 21 -45 36 -25 16 -45 33 -45 37 0 5 -6 9
-14 9 -8 0 -18 5 -22 12 -5 8 -2 9 12 4 10 -5 27 -11 37 -13z m183 -148 c15
-14 23 -25 19 -25 -4 0 -2 -7 5 -15 10 -12 10 -15 -4 -15 -9 0 -16 8 -16 20 0
11 -9 25 -20 32 -11 7 -20 16 -20 20 0 13 8 9 36 -17z m-99 -53 c16 -3 21 -10
20 -31 -2 -14 -7 -26 -12 -25 -34 2 -95 18 -95 24 0 4 -26 13 -57 20 -32 7
-62 14 -68 16 -14 5 185 1 212 -4z"/>
<path d="M1423 1816 l6 -45 -52 -30 -52 -31 -26 30 -25 30 -21 -21 -21 -21 34
-31 33 -32 -21 -54 c-21 -53 -22 -53 -59 -48 -35 5 -37 3 -41 -24 -4 -27 -3
-28 40 -31 45 -3 45 -3 64 -58 19 -55 18 -55 -2 -72 -11 -9 -25 -18 -32 -20
-7 -3 -5 -13 7 -32 l18 -27 31 30 31 29 48 -27 c61 -36 58 -32 47 -71 -11 -39
-13 -36 23 -45 25 -7 27 -5 27 23 0 41 19 58 75 65 56 8 62 6 70 -33 8 -34 6
-34 39 -19 l25 12 -20 39 -20 40 36 44 c40 49 40 49 75 29 33 -19 35 -19 48 9
10 23 8 25 -29 40 l-39 16 0 65 0 65 29 0 c35 0 41 7 34 42 -5 26 -6 26 -39
12 -18 -8 -37 -14 -42 -14 -4 0 -25 20 -45 45 l-38 45 25 33 26 34 -25 11
c-14 7 -27 12 -28 12 -1 0 -11 -16 -21 -35 -18 -33 -22 -35 -55 -29 -82 16
-86 18 -89 57 -3 32 -7 37 -29 37 -25 0 -25 -2 -20 -44z m141 -78 c62 -19 131
-92 144 -155 15 -67 6 -116 -32 -171 -45 -67 -103 -95 -188 -90 -55 3 -75 9
-110 33 -115 81 -122 255 -13 342 63 50 124 63 199 41z m221 -98 c3 -6 -4 -10
-17 -10 -18 0 -20 2 -8 10 19 12 18 12 25 0z m-537 -107 c-10 -2 -26 -2 -35 0
-10 3 -2 5 17 5 19 0 27 -2 18 -5z m66 -168 c-7 -16 -24 -21 -24 -6 0 8 7 13
27 20 1 1 0 -6 -3 -14z m336 -66 c0 -6 -4 -7 -10 -4 -5 3 -10 11 -10 16 0 6 5
7 10 4 6 -3 10 -11 10 -16z"/>
<path d="M1395 1660 c-27 -18 -31 -29 -47 -112 -9 -51 -17 -97 -17 -103 -1 -6
60 -10 164 -10 142 0 164 2 161 15 -2 8 -7 33 -10 55 -15 95 -28 145 -37 145
-6 0 -17 7 -25 15 -17 17 -70 20 -79 5 -4 -7 -12 -7 -25 0 -28 15 -52 12 -85
-10z m83 -2 c7 -7 12 -43 12 -90 0 -77 0 -78 -21 -67 -12 6 -34 8 -50 5 -32
-6 -32 -10 -13 114 8 48 43 67 72 38z m86 6 c21 -8 20 -24 -1 -25 -14 0 -15
-2 -3 -6 8 -3 18 -11 22 -17 5 -7 8 -4 8 7 0 9 4 17 9 17 6 0 6 -12 -1 -31 -6
-17 -8 -48 -5 -69 l5 -38 -38 5 c-20 3 -40 1 -43 -3 -3 -5 17 -10 44 -11 l49
-2 -6 42 c-3 23 -1 53 5 67 9 20 10 15 6 -30 -4 -42 -2 -49 5 -30 8 20 9 18 4
-15 -3 -22 -8 -43 -10 -47 -3 -5 -29 -8 -58 -8 l-53 0 -2 86 c-2 104 11 128
63 108z m-179 -120 l-6 -54 45 2 c25 1 51 -3 58 -10 9 -9 0 -12 -44 -12 -62 0
-62 0 -72 75 -5 33 -4 36 4 15 8 -20 9 -14 5 25 -4 39 -2 46 6 32 7 -12 8 -40
4 -73z m-28 -61 c-3 -10 -5 -4 -5 12 0 17 2 24 5 18 2 -7 2 -21 0 -30z m283
-10 l0 -28 -151 3 c-83 2 -149 5 -146 8 3 3 68 5 146 5 133 0 141 1 141 20 0
10 2 19 5 19 3 0 5 -12 5 -27z"/>
<path d="M1430 1600 c0 -11 4 -20 8 -20 4 0 8 9 9 20 1 11 -2 20 -8 20 -5 0
-9 -9 -9 -20z"/>
<path d="M1460 1610 c0 -5 5 -10 10 -10 6 0 10 5 10 10 0 6 -4 10 -10 10 -5 0
-10 -4 -10 -10z"/>
<path d="M1430 1535 c0 -8 5 -15 10 -15 6 0 10 7 10 15 0 8 -4 15 -10 15 -5 0
-10 -7 -10 -15z"/>
<path d="M1460 1535 c0 -8 5 -15 10 -15 6 0 10 7 10 15 0 8 -4 15 -10 15 -5 0
-10 -7 -10 -15z"/>
<path d="M1523 1600 c1 -11 5 -20 9 -20 4 0 8 9 8 20 0 11 -4 20 -9 20 -6 0
-9 -9 -8 -20z"/>
<path d="M1557 1600 c-3 -12 0 -20 8 -20 8 0 11 8 8 20 -3 11 -7 20 -8 20 -1
0 -5 -9 -8 -20z"/>
<path d="M1558 1563 c7 -3 16 -2 19 1 4 3 -2 6 -13 5 -11 0 -14 -3 -6 -6z"/>
<path d="M1520 1535 c0 -8 5 -15 10 -15 6 0 10 7 10 15 0 8 -4 15 -10 15 -5 0
-10 -7 -10 -15z"/>
<path d="M1561 1534 c0 -11 3 -14 6 -6 3 7 2 16 -1 19 -3 4 -6 -2 -5 -13z"/>
<path d="M2045 1667 c-104 -5 -192 -11 -194 -13 -2 -1 7 -17 19 -34 12 -17 21
-33 19 -34 -2 -2 -26 -7 -54 -12 -43 -8 -50 -13 -53 -34 -3 -23 3 -28 50 -44
29 -11 54 -20 56 -22 2 -1 -4 -13 -13 -27 l-16 -25 68 -6 c37 -3 124 -8 193
-11 69 -3 143 -8 165 -12 22 -3 38 -3 35 0 -5 5 -297 92 -440 132 l-45 12 45
12 c25 7 126 37 225 66 99 29 189 55 200 58 28 7 -38 5 -260 -6z m40 -33 c-33
-8 -73 -21 -90 -28 -60 -27 -79 -27 -92 -1 -15 33 -9 35 197 41 45 2 45 2 -15
-12z m-260 -94 c-3 -5 -10 -10 -16 -10 -5 0 -9 5 -9 10 0 6 7 10 16 10 8 0 12
-4 9 -10z m178 -71 c48 -13 87 -27 87 -32 0 -4 -42 -7 -92 -5 -92 3 -93 3 -90
27 2 13 -2 28 -10 33 -10 8 -10 9 2 6 8 -3 54 -16 103 -29z"/>
<path d="M975 1479 c-82 -26 -183 -57 -223 -69 -40 -12 -72 -23 -70 -25 2 -2
111 5 243 15 132 9 241 16 242 16 1 -1 -87 -69 -197 -151 -109 -82 -198 -150
-197 -152 2 -1 101 41 221 95 l217 96 -30 26 -31 25 49 29 c45 27 48 31 38 53
-9 20 -17 23 -69 23 -62 0 -64 1 -47 31 6 11 9 24 7 28 -2 4 -70 -14 -153 -40z
m122 -16 c7 -15 12 -28 10 -29 -1 -1 -54 -5 -117 -8 -70 -3 -99 -2 -75 3 22 5
33 9 25 10 -8 1 3 9 24 17 22 8 48 11 59 8 12 -4 17 -2 13 4 -6 9 10 18 39 21
6 0 16 -11 22 -26z m107 -29 c9 -3 16 -10 16 -16 0 -5 -4 -6 -10 -3 -5 3 -10
1 -10 -4 0 -19 -17 -12 -23 9 -5 21 1 24 27 14z m-45 -122 c-8 -3 -25 -12 -39
-22 -27 -18 -165 -80 -178 -80 -11 1 40 40 67 51 13 5 21 12 17 16 -9 10 33
35 46 27 7 -4 8 -3 4 4 -4 6 5 17 21 25 24 13 30 13 51 -1 18 -11 21 -17 11
-20z"/>
<path d="M1840 1360 l0 -40 -51 25 c-48 25 -52 25 -69 10 -18 -16 -17 -19 11
-66 16 -28 29 -52 29 -54 0 -2 -14 -7 -32 -10 l-32 -7 45 -41 c24 -22 101 -94
172 -160 70 -65 127 -116 127 -113 0 3 -63 97 -139 208 -77 112 -138 204 -136
206 2 2 11 -2 22 -8 20 -12 443 -189 443 -185 0 4 -378 275 -384 275 -3 0 -6
-18 -6 -40z m-90 -20 c0 -5 -4 -10 -10 -10 -5 0 -10 5 -10 10 0 6 5 10 10 10
6 0 10 -4 10 -10z m163 -4 c9 -7 17 -18 17 -25 0 -6 3 -10 8 -9 14 3 42 -14
36 -23 -3 -5 0 -9 6 -9 6 0 28 -11 48 -25 20 -14 34 -25 30 -25 -14 0 -173 66
-206 86 -2 1 1 12 8 23 12 24 28 26 53 7z m-80 -158 c43 -65 48 -98 9 -61 -10
10 -38 34 -62 53 -41 32 -42 35 -21 44 11 5 21 16 21 24 0 19 -1 20 53 -60z
m61 -93 c3 -8 1 -15 -4 -15 -6 0 -10 7 -10 15 0 8 2 15 4 15 2 0 6 -7 10 -15z"/>
<path d="M1296 1265 c-22 -19 -43 -35 -46 -35 -4 0 -10 14 -13 30 -4 17 -10
30 -14 30 -5 0 -30 -35 -58 -78 -27 -42 -84 -131 -127 -196 -43 -66 -77 -120
-75 -122 1 -1 87 81 192 182 104 101 192 183 196 182 3 -2 0 -21 -7 -43 -13
-39 -13 -39 -8 -5 4 25 3 32 -5 25 -8 -8 -56 -200 -116 -470 -4 -16 41 66 99
184 58 117 106 216 106 218 0 3 -16 3 -35 1 -25 -3 -34 0 -31 8 3 7 10 31 17
54 12 38 11 44 -6 56 -25 18 -24 19 -69 -21z m-105 -125 c-37 -36 -69 -61 -73
-55 -4 5 -2 13 5 17 7 4 8 8 4 8 -8 0 40 69 56 81 5 3 8 8 6 10 -1 2 4 13 11
25 l13 21 22 -21 21 -21 -65 -65z m190 -9 c-5 -9 -26 -53 -47 -98 -21 -45 -40
-81 -41 -79 -7 6 18 150 27 161 5 7 7 15 4 18 -13 13 7 23 35 19 24 -3 28 -7
22 -21z"/>
<path d="M1543 1253 c-7 -2 -17 -31 -24 -63 l-11 -58 -35 21 -35 20 5 -29 c4
-16 18 -121 32 -234 15 -112 27 -206 29 -207 1 -1 12 104 25 235 12 130 24
244 25 252 1 8 55 -87 120 -212 64 -126 119 -228 120 -228 2 0 -5 30 -15 68
-10 37 -37 141 -60 231 l-42 164 -28 -31 -27 -30 -22 54 c-21 52 -30 59 -57
47z m27 -29 c0 -8 -5 -12 -10 -9 -6 4 -8 11 -5 16 9 14 15 11 15 -7z m139
-219 c4 -27 11 -59 15 -70 3 -11 -4 0 -16 25 -13 25 -34 62 -46 83 -37 59 -42
89 -18 109 21 16 21 15 38 -40 10 -31 22 -79 27 -107z m-216 113 c3 -10 8 -9
22 2 17 14 18 13 12 -25 -4 -22 -9 -73 -13 -113 -4 -40 -10 -70 -13 -66 -6 6
-30 153 -31 192 0 23 15 30 23 10z"/>
<path d="M892 2398 c-9 -9 12 -52 54 -106 1 -2 10 0 18 5 13 7 11 16 -19 57
-43 61 -39 58 -53 44z"/>
<path d="M2160 2300 c-23 -23 -25 -42 -9 -73 28 -54 91 -74 122 -39 26 29 20
61 -17 98 -39 39 -67 43 -96 14z m82 -27 c35 -31 13 -78 -34 -71 -29 4 -47 50
-28 72 16 21 39 20 62 -1z"/>
<path d="M723 2259 c-8 -8 2 -22 34 -52 l44 -41 42 42 c22 23 38 45 34 49 -4
4 -22 -7 -40 -25 l-31 -32 -36 35 c-26 25 -39 32 -47 24z"/>
<path d="M2287 2154 c-40 -29 -46 -38 -36 -50 10 -13 14 -12 31 3 18 16 20 16
43 -12 13 -17 26 -27 30 -23 4 4 -2 19 -14 34 -20 25 -20 44 -1 44 5 0 17 -13
27 -30 17 -30 33 -39 33 -20 0 11 -52 89 -60 89 -3 0 -27 -15 -53 -35z"/>
<path d="M631 2166 c-10 -12 -6 -26 19 -76 29 -58 58 -74 46 -25 -7 27 28 77
48 69 7 -3 18 2 25 10 10 12 7 15 -16 20 -88 16 -110 17 -122 2z m56 -24 c10
-7 10 -12 0 -25 -11 -15 -13 -15 -24 8 -12 26 -2 33 24 17z"/>
<path d="M568 2068 c-2 -6 11 -25 29 -41 19 -16 32 -31 31 -32 -2 -2 -22 0
-45 4 -37 7 -43 6 -49 -11 -4 -14 4 -30 27 -54 l33 -34 -29 6 c-55 10 -69 9
-72 -6 -3 -12 6 -16 34 -18 21 -1 50 -5 65 -8 41 -8 41 24 1 67 l-34 35 50 -6
c69 -9 75 10 19 67 -45 45 -54 50 -60 31z"/>
<path d="M2405 1967 c-27 -11 -51 -21 -52 -22 -8 -5 44 -115 54 -115 9 0 7 13
-7 44 -10 24 -16 47 -13 50 15 14 30 4 42 -29 7 -19 17 -35 22 -35 12 0 12 5
-5 45 -10 22 -11 37 -5 41 13 8 14 7 32 -38 9 -21 21 -38 27 -38 7 0 10 4 8 8
-1 4 -12 31 -22 60 -11 29 -22 52 -25 51 -4 0 -28 -10 -56 -22z"/>
<path d="M486 1821 c-41 -45 -35 -126 9 -137 51 -13 85 21 87 84 2 61 -59 94
-96 53z m58 -24 c22 -16 18 -65 -6 -81 -40 -25 -77 43 -43 78 20 19 26 20 49
3z"/>
<path d="M2453 1808 c-26 -5 -43 -15 -43 -24 0 -16 18 -18 54 -4 34 12 33 5
-4 -37 -37 -42 -41 -78 -7 -70 12 3 39 9 60 12 23 5 37 13 37 22 0 13 -8 14
-41 9 l-41 -7 31 40 c53 66 42 79 -46 59z"/>
<path d="M450 1625 c-19 -23 -16 -92 5 -115 25 -27 70 -26 89 2 16 23 21 83
10 112 -3 9 -18 16 -33 16 -23 0 -26 -5 -28 -35 -2 -26 1 -35 13 -35 11 0 14
6 9 21 -5 16 -3 20 6 17 8 -3 14 -19 14 -38 0 -40 -25 -61 -52 -44 -21 13 -29
62 -14 77 13 13 14 37 2 37 -5 0 -14 -7 -21 -15z"/>
<path d="M2456 1621 c-35 -39 -16 -146 25 -139 11 2 20 6 19 11 0 4 0 21 0 37
0 17 -5 30 -11 30 -6 0 -9 -9 -6 -20 3 -13 0 -20 -9 -20 -19 0 -18 64 1 80 25
21 65 -3 65 -38 0 -15 -5 -33 -11 -39 -6 -6 -8 -17 -4 -24 13 -20 35 20 35 63
0 66 -64 103 -104 59z"/>
<path d="M498 1446 c-47 -8 -58 -13 -58 -28 0 -14 5 -18 18 -14 9 3 31 8 47
12 l30 7 -37 -40 c-21 -21 -38 -48 -38 -59 0 -19 3 -19 60 -10 48 8 60 13 60
29 0 14 -5 17 -20 13 -11 -3 -30 -9 -42 -12 -20 -6 -18 -2 13 37 50 61 42 77
-33 65z"/>
<path d="M2450 1432 c-18 -14 -24 -32 -28 -75 -2 -32 -1 -57 4 -57 5 0 19 -3
30 -6 19 -5 22 -1 26 31 5 40 -10 60 -19 26 -8 -31 -23 -26 -23 8 0 34 20 54
52 49 29 -4 35 -42 14 -83 -19 -37 -12 -45 16 -18 30 31 30 99 -1 124 -29 24
-43 24 -71 1z"/>
<path d="M510 1260 c-26 -26 -25 -59 3 -101 29 -44 70 -47 100 -7 17 22 18 31
8 59 -24 68 -71 89 -111 49z m74 -26 c22 -22 20 -61 -4 -74 -42 -23 -82 29
-53 69 17 25 36 27 57 5z"/>
<path d="M2390 1254 c0 -17 22 -14 28 4 2 7 -3 12 -12 12 -9 0 -16 -7 -16 -16z"/>
<path d="M2345 1126 c-14 -14 -25 -34 -25 -46 0 -11 -7 -23 -15 -26 -8 -4 -15
-13 -15 -21 0 -10 6 -13 17 -9 9 4 20 1 25 -6 6 -10 10 -7 14 10 8 27 34 29
34 2 0 -25 22 -26 43 -2 24 26 22 62 -3 62 -13 0 -20 7 -20 19 0 10 -7 24 -15
31 -11 9 -19 7 -40 -14z m35 -32 c0 -8 -2 -14 -4 -14 -2 0 -11 -3 -20 -6 -19
-7 -22 16 -4 34 13 13 28 7 28 -14z m36 -50 c-5 -14 -9 -15 -19 -5 -9 9 -9 14
3 21 18 11 24 6 16 -16z"/>
<path d="M620 1133 c0 -5 9 -23 20 -40 l19 -33 -44 -25 c-29 -17 -42 -31 -38
-41 7 -20 2 -22 86 30 l28 17 -27 49 c-24 45 -44 64 -44 43z"/>
<path d="M2221 926 c-9 -10 -6 -17 11 -29 63 -45 63 -45 43 -67 -10 -11 -15
-23 -11 -27 7 -7 32 19 77 80 12 16 16 27 8 27 -6 0 -17 -8 -24 -17 -11 -15
-16 -14 -53 15 -33 26 -42 29 -51 18z"/>
<path d="M726 899 l-36 -31 -18 23 c-11 12 -21 18 -24 13 -3 -5 14 -33 38 -62
25 -30 46 -48 49 -41 4 5 0 18 -9 28 -15 16 -13 19 24 47 22 16 38 33 37 38
-7 21 -27 16 -61 -15z"/>
<path d="M805 810 c-29 -40 -35 -54 -26 -63 10 -9 14 -9 21 3 5 8 16 24 24 35
14 19 15 17 16 -31 0 -61 22 -90 44 -58 8 10 23 30 35 44 l22 25 -6 -65 c-6
-56 -4 -66 12 -76 15 -9 29 -3 77 27 44 29 54 40 42 45 -9 3 -23 3 -32 0 -19
-7 -64 21 -64 41 0 14 -37 52 -52 53 -3 0 -15 -15 -27 -32 l-21 -33 0 56 c0
85 -18 92 -65 29z m184 -123 c8 -10 7 -17 -1 -25 -19 -19 -28 -14 -28 13 0 27
12 32 29 12z"/>
<path d="M2107 820 c-29 -23 -43 -41 -36 -45 6 -4 25 7 43 24 28 27 35 30 45
18 9 -12 6 -20 -19 -40 -42 -36 -38 -55 6 -22 23 17 39 24 45 18 6 -6 -3 -20
-26 -37 -19 -15 -33 -32 -29 -37 3 -6 27 7 52 27 26 21 49 39 51 40 4 4 -72
94 -79 94 -3 -1 -26 -18 -53 -40z"/>
<path d="M1980 733 c-31 -21 -40 -33 -40 -55 0 -23 23 -13 35 15 14 32 58 35
72 4 14 -31 3 -47 -37 -56 -37 -7 -53 -31 -21 -31 34 0 72 23 88 53 14 27 13
32 -5 56 -23 32 -59 37 -92 14z"/>
<path d="M1871 681 c-10 -7 -11 -13 -1 -31 14 -26 12 -28 -26 -36 -25 -5 -31
-2 -39 20 -7 18 -14 23 -23 17 -20 -12 15 -123 37 -118 16 3 17 10 6 38 -4 12
3 18 27 25 29 9 34 8 43 -13 7 -15 14 -20 23 -15 9 7 9 19 -4 58 -20 59 -25
66 -43 55z"/>
<path d="M1087 663 c-16 -16 -4 -43 28 -63 19 -12 35 -26 35 -31 0 -17 -29 -9
-50 13 -11 12 -23 18 -27 14 -14 -13 14 -41 51 -50 29 -8 40 -6 52 6 15 14 14
18 -3 34 -10 11 -30 26 -43 35 -14 9 -22 20 -18 24 11 12 58 -4 58 -19 0 -8 9
-16 20 -19 29 -7 25 17 -6 42 -26 20 -83 28 -97 14z"/>
<path d="M1713 633 c-20 -8 -15 -23 7 -23 11 0 20 7 20 15 0 15 -6 17 -27 8z"/>
<path d="M1474 595 c-10 -39 -10 -40 -52 -37 -23 2 -42 1 -42 -1 0 -3 15 -15
34 -27 34 -21 35 -21 20 -55 -20 -48 -18 -49 20 -20 l34 26 31 -27 c33 -28 38
-21 19 22 -12 25 -10 29 22 56 l35 30 -42 -4 c-25 -2 -43 1 -43 7 -1 5 -7 24
-14 40 l-13 30 -9 -40z m41 -73 c-3 -8 -5 -18 -5 -24 0 -7 -5 -6 -14 1 -11 9
-16 9 -22 -1 -6 -9 -10 -5 -14 12 -8 33 16 53 42 36 10 -6 16 -17 13 -24z"/>
<path d="M2220 2672 c0 -4 5 -13 10 -18 8 -8 6 -15 -5 -24 -18 -15 -20 -41 -2
-59 10 -10 7 -11 -15 -6 -44 11 -34 -13 11 -26 22 -6 43 -21 48 -32 9 -19 12
-17 42 27 l33 48 20 -21 c19 -21 19 -22 -11 -59 -20 -26 -27 -43 -21 -52 5 -8
10 -12 12 -10 30 41 68 77 73 70 4 -6 11 -8 16 -5 5 4 9 0 9 -8 0 -7 11 -24
25 -37 14 -13 25 -28 25 -33 0 -6 -11 0 -25 13 l-25 23 -26 -26 c-31 -31 -27
-55 17 -91 16 -14 29 -32 29 -42 0 -12 11 -7 46 22 44 36 47 37 60 19 19 -26
19 -26 -26 -57 -26 -18 -38 -33 -34 -43 5 -12 14 -9 50 17 24 17 45 29 47 27
1 -2 8 -12 16 -21 11 -15 7 -20 -28 -43 -26 -16 -41 -33 -41 -46 0 -19 3 -18
44 11 25 16 47 30 50 30 3 0 13 -14 22 -31 13 -26 14 -33 2 -40 -8 -6 -17 -3
-24 6 -10 13 -12 11 -17 -12 -8 -39 7 -49 38 -29 25 17 27 17 40 -1 12 -16 9
-20 -31 -41 -29 -15 -44 -29 -44 -42 0 -18 2 -18 43 5 23 14 47 25 54 25 18 0
45 -102 30 -112 -8 -5 -13 0 -15 15 -5 27 -20 47 -37 47 -20 0 -25 -25 -10
-54 12 -22 12 -26 0 -26 -19 0 -26 -13 -16 -29 6 -10 13 -10 29 -2 15 8 23 7
32 -4 14 -17 5 -36 -15 -28 -10 3 -15 -1 -15 -12 0 -11 7 -15 23 -13 19 3 22
9 21 41 -2 47 22 50 39 5 21 -61 16 -72 -36 -82 -35 -6 -47 -13 -47 -26 0 -17
3 -17 53 -4 28 7 53 14 55 14 1 0 2 -7 2 -16 0 -8 5 -12 10 -9 6 4 8 11 4 16
-3 6 4 20 15 31 27 24 26 85 -1 102 -27 16 -32 0 -9 -30 16 -20 18 -31 10 -45
-13 -26 -29 -24 -29 4 0 42 -67 224 -114 311 -28 49 -43 87 -37 91 15 9 51
-31 58 -65 3 -17 10 -30 14 -30 12 0 1 48 -21 85 -13 24 -23 30 -47 29 -37 -2
-64 37 -52 76 12 40 10 65 -6 86 -13 17 -14 13 -9 -46 5 -65 5 -65 -13 -40
-10 14 -52 63 -93 109 -74 84 -75 86 -72 133 2 26 0 48 -5 48 -18 0 -22 -13
-12 -32 6 -10 7 -29 3 -41 -7 -18 -9 -15 -16 22 -8 47 -14 58 -25 47 -4 -4 -2
-16 5 -26 25 -41 10 -38 -53 10 -74 56 -105 74 -105 62z m85 -72 c9 -14 -13
-40 -34 -40 -31 0 -41 20 -24 46 12 19 19 22 33 14 11 -6 22 -15 25 -20z m198
-201 c12 9 16 8 20 -2 3 -8 -7 -23 -22 -35 -28 -20 -28 -20 -60 -1 -17 10 -31
26 -31 36 0 14 4 13 24 -6 13 -12 27 -18 30 -13 3 5 -3 17 -14 27 -11 10 -20
23 -20 28 0 6 13 -2 30 -18 23 -22 32 -26 43 -16z m221 -425 c11 -27 7 -37 -9
-24 -16 14 -20 40 -6 40 5 0 12 -7 15 -16z"/>
<path d="M376 2290 c-89 -138 -174 -319 -161 -341 4 -5 1 -9 -4 -9 -6 0 -11
-6 -11 -14 0 -8 -10 -16 -23 -20 -27 -6 -77 -50 -77 -66 0 -5 7 -10 15 -10 8
0 15 6 15 14 0 15 45 56 61 56 5 0 4 -10 -1 -22 -10 -26 -37 -171 -38 -207 -1
-29 -11 -39 -21 -22 -10 16 -31 6 -31 -13 0 -8 -7 -19 -15 -26 -8 -7 -15 -20
-15 -28 0 -11 9 -6 29 16 17 17 34 32 38 32 4 0 8 -61 8 -135 0 -86 4 -134 10
-132 6 2 9 37 6 85 -3 73 -1 82 14 82 16 0 17 -7 11 -64 -7 -72 6 -96 42 -77
24 13 54 58 43 65 -4 3 -13 -6 -20 -20 -14 -31 -45 -29 -49 4 -3 16 0 20 12
16 20 -8 20 14 1 40 -22 28 -19 34 17 38 17 2 33 9 36 16 3 8 -12 12 -52 12
-56 0 -56 0 -56 31 l0 31 48 -7 c36 -5 51 -3 60 8 11 12 4 16 -42 21 -57 8
-66 17 -58 64 6 30 42 30 42 0 0 -20 1 -21 20 -3 29 26 25 42 -14 49 -28 5
-33 10 -29 26 6 22 12 23 65 11 34 -8 48 -1 48 24 0 1 -22 5 -50 9 -50 7 -57
15 -44 49 5 14 10 14 47 1 41 -14 67 -13 67 4 0 5 -21 15 -47 22 -27 7 -49 14
-51 15 -7 6 42 135 52 135 28 -1 46 -27 40 -59 -4 -17 -11 -31 -16 -31 -15 0
-20 27 -8 49 7 13 7 21 1 21 -31 0 -39 -82 -9 -88 20 -4 58 35 58 60 0 10 6
18 14 18 27 0 28 20 2 30 -82 32 -78 28 -65 52 6 13 13 24 14 26 2 2 22 -6 44
-18 39 -19 61 -20 61 0 0 4 -20 16 -45 27 -25 10 -45 21 -45 24 0 4 83 141 97
158 2 3 8 0 14 -6 7 -7 5 -14 -6 -23 -8 -7 -15 -18 -15 -26 0 -7 -6 -17 -14
-21 -18 -11 -38 -51 -31 -63 9 -15 69 -12 91 5 22 17 15 19 -20 6 -33 -13 -52
7 -31 35 10 13 14 15 15 5 0 -11 3 -11 14 -1 8 6 12 18 9 26 -3 8 -2 21 1 29
5 14 8 14 30 0 17 -12 30 -14 41 -7 14 7 9 13 -29 36 -49 29 -53 35 -34 54 9
9 9 12 -3 12 -8 0 -41 -40 -73 -90z"/>
<path d="M2840 1675 c-6 -8 -9 -23 -5 -35 5 -16 2 -20 -14 -20 -12 0 -21 7
-21 15 0 26 -16 16 -49 -30 -18 -25 -28 -45 -22 -45 5 0 17 10 25 22 9 12 16
20 17 18 1 -3 2 -22 3 -42 2 -30 -1 -38 -15 -38 -9 0 -20 -7 -23 -16 -5 -14 2
-15 50 -12 l55 3 -5 -40 c-3 -22 -5 -43 -5 -46 -2 -15 -31 -3 -31 13 0 10 -4
18 -9 18 -13 0 -71 -68 -71 -83 1 -7 9 -2 19 11 11 12 22 22 26 22 13 0 1 -55
-16 -75 -22 -26 -41 -74 -33 -86 3 -5 -4 -18 -16 -27 -22 -18 -22 -18 32 -31
46 -11 55 -17 51 -32 -8 -28 -17 -30 -61 -15 -34 12 -43 12 -52 1 -9 -10 0
-17 40 -30 28 -9 50 -20 48 -24 -24 -59 -54 -121 -58 -121 -3 0 -11 4 -18 8
-9 6 -7 18 9 51 11 24 18 45 16 48 -9 8 -48 -17 -42 -27 3 -5 3 -20 -1 -34 -5
-22 -9 -24 -26 -15 -15 8 -24 8 -34 -3 -12 -12 -6 -17 36 -33 41 -16 49 -23
44 -38 -4 -12 -2 -18 6 -15 21 7 131 278 130 322 0 6 -7 3 -15 -7 -30 -41 -86
14 -66 64 6 16 10 18 10 8 1 -9 10 -27 20 -40 19 -23 19 -24 40 -5 22 20 29
70 10 81 -5 4 -19 -1 -30 -11 -17 -16 -19 -16 -19 -1 0 10 4 17 9 17 4 0 6 11
4 24 -5 27 7 39 31 30 10 -4 16 -18 16 -35 0 -16 4 -29 9 -29 9 0 22 225 18
322 -1 32 -3 58 -3 58 -1 0 -7 -7 -14 -15z m0 -121 c0 -28 -4 -35 -16 -32 -40
8 -44 68 -4 68 16 0 20 -6 20 -36z m-26 -279 c3 -9 -1 -18 -10 -22 -19 -7 -28
2 -21 22 8 19 23 19 31 0z"/>
<path d="M118 1593 c-26 -31 -30 -43 -14 -43 9 0 16 8 16 18 0 10 5 23 12 30
7 7 10 12 7 12 -3 0 -13 -8 -21 -17z"/>
<path d="M2876 1525 c-8 -22 3 -40 16 -27 7 7 7 16 1 27 -9 16 -10 16 -17 0z"/>
<path d="M170 1268 c0 -7 9 -47 21 -88 11 -41 21 -82 24 -90 2 -8 22 -58 44
-110 27 -65 42 -90 46 -78 4 9 2 25 -4 37 -15 26 -14 28 9 34 13 3 20 0 20 -9
0 -33 19 -10 30 37 14 56 6 81 -8 28 l-9 -34 -15 35 c-14 31 -14 36 -1 47 8 6
13 18 11 26 -2 12 -11 11 -51 -8 -45 -22 -48 -22 -57 -5 -5 9 -7 19 -5 22 2 2
-2 26 -10 53 -9 27 -11 53 -7 57 5 5 15 -11 22 -37 7 -25 16 -48 20 -50 15 -9
36 5 54 35 20 35 12 40 -14 8 -21 -26 -35 -19 -45 24 -6 23 -3 28 18 33 14 4
28 14 32 22 8 22 2 25 -26 15 -56 -21 -79 -23 -79 -7 0 8 -4 15 -10 15 -5 0
-10 -6 -10 -12z m128 -220 c17 -17 15 -45 -4 -52 -19 -7 -17 -9 -34 23 -10 19
-10 25 1 32 18 12 23 11 37 -3z"/>
<path d="M190 1057 c0 -19 16 -31 24 -18 3 5 -1 14 -9 21 -12 10 -15 10 -15
-3z"/>
<path d="M426 825 c-7 -34 -8 -35 -54 -35 l-47 0 35 -21 c19 -12 37 -23 39
-25 2 -2 -4 -22 -13 -44 l-16 -41 35 27 35 26 35 -26 c40 -31 40 -31 20 17
l-15 36 37 26 38 25 -47 0 c-46 0 -47 1 -54 35 -3 19 -10 35 -14 35 -4 0 -11
-16 -14 -35z m35 -48 c12 -10 13 -16 4 -34 -7 -13 -15 -20 -18 -17 -4 4 -14 1
-23 -7 -15 -12 -16 -12 -10 8 4 12 2 24 -4 28 -7 5 -5 12 7 21 22 16 24 16 44
1z"/>
<path d="M2553 830 c-8 -32 -13 -35 -54 -40 l-44 -5 33 -20 c34 -20 35 -22 16
-85 l-7 -25 31 29 c32 30 39 29 80 -7 26 -24 27 -19 8 28 -15 34 -15 34 22 57
l37 23 -44 5 c-40 5 -46 8 -56 40 l-12 35 -10 -35z m41 -81 c-8 -8 -11 -19 -7
-23 4 -3 -4 -5 -18 -4 -13 2 -29 12 -34 23 -14 27 19 46 52 30 19 -9 20 -12 7
-26z"/>
<path d="M2329 591 c-100 -91 -264 -190 -385 -231 -43 -15 -54 -16 -75 -4 -31
17 -52 18 -46 2 2 -7 14 -12 25 -10 14 2 22 -2 22 -11 0 -8 8 -17 18 -19 11
-3 23 -22 30 -47 8 -23 19 -41 27 -41 13 0 12 8 -4 49 -10 28 -16 52 -13 55
11 12 40 6 46 -9 3 -8 15 -15 26 -15 11 0 20 -4 20 -10 0 -5 -9 -10 -21 -10
-12 0 -19 -5 -16 -12 2 -7 11 -13 19 -13 8 0 23 -6 32 -14 9 -8 19 -11 23 -7
4 3 -2 13 -13 20 -15 12 -17 17 -6 27 14 16 16 55 2 64 -5 3 -10 9 -10 13 0 7
52 34 56 29 1 -1 11 -21 23 -44 12 -24 28 -43 36 -43 19 0 19 -1 -11 54 -15
26 -25 48 -23 50 58 40 140 83 145 75 6 -11 -31 -42 -55 -46 -23 -3 -42 -28
-36 -46 10 -24 85 -48 85 -27 0 6 -11 10 -25 10 -29 0 -44 26 -25 43 10 9 14
9 17 0 7 -21 23 -15 33 12 11 30 26 32 35 5 4 -11 15 -20 26 -20 18 0 17 4
-11 46 l-32 45 23 20 c17 14 25 16 36 8 7 -6 13 -18 13 -25 0 -8 11 -14 26
-14 15 0 23 4 19 11 -10 16 27 40 42 27 7 -5 17 -7 23 -3 8 5 -2 21 -27 47
-24 26 -33 42 -25 45 14 5 17 23 3 23 -4 0 -37 -26 -72 -59z m61 -6 c10 -13
10 -19 -5 -35 -18 -20 -18 -20 -32 0 -12 17 -12 24 -3 35 16 19 24 19 40 0z
m-363 -240 c3 -9 3 -18 1 -21 -9 -9 -38 8 -38 22 0 19 29 18 37 -1z"/>
<path d="M610 627 c0 -8 7 -17 15 -21 25 -9 18 -29 -9 -22 -19 5 -25 1 -29
-16 -7 -24 6 -53 27 -61 9 -4 13 -14 10 -29 -5 -19 2 -15 35 20 22 24 45 41
51 37 25 -16 6 19 -27 48 -59 52 -73 61 -73 44z m70 -67 c0 -4 -9 -15 -19 -24
-15 -14 -24 -15 -40 -6 -27 14 -27 33 -1 25 13 -4 22 -1 26 9 5 14 34 12 34
-4z"/>
<path d="M730 606 c0 -8 4 -16 10 -18 5 -1 13 -19 16 -38 7 -32 6 -34 -9 -21
-15 12 -17 11 -17 -3 0 -9 5 -16 11 -16 6 0 -4 -18 -21 -40 -20 -26 -30 -46
-26 -57 5 -13 12 -8 33 23 37 57 39 58 62 42 19 -13 19 -17 7 -27 -8 -7 -20
-10 -27 -6 -8 5 -9 0 -4 -16 12 -41 23 -44 42 -11 20 35 22 36 42 23 11 -7 8
-16 -13 -47 -26 -38 -33 -64 -18 -64 4 0 20 20 36 45 23 37 31 43 42 34 11 -9
14 -8 14 2 -1 8 -32 33 -70 57 -60 38 -70 48 -70 72 0 16 -4 40 -10 54 -10 28
-30 35 -30 12z"/>
<path d="M2474 540 c-28 -11 -40 -30 -20 -30 8 0 18 5 21 10 3 6 19 10 36 10
16 0 29 5 29 10 0 12 -37 12 -66 0z"/>
<path d="M1830 390 c0 -5 8 -10 19 -10 10 0 24 -7 31 -15 7 -9 15 -13 18 -10
3 3 -3 14 -13 25 -19 21 -55 27 -55 10z"/>
<path d="M916 382 c-9 -14 9 -31 23 -23 7 5 10 14 7 20 -8 13 -23 14 -30 3z"/>
<path d="M1352 320 l5 -32 -59 7 c-32 4 -87 16 -121 26 -75 23 -83 23 -67 4 7
-8 21 -15 31 -15 23 0 32 -15 24 -40 -6 -20 -45 -29 -45 -10 0 6 10 10 22 10
16 0 19 3 11 11 -17 17 -48 6 -48 -16 0 -14 8 -21 27 -23 24 -3 27 -6 18 -22
-7 -13 -7 -21 1 -26 12 -7 29 12 29 34 0 6 9 12 20 12 22 0 27 -16 8 -22 -6
-2 -8 -10 -4 -16 11 -18 26 -4 26 25 0 17 -7 27 -20 30 -35 9 -16 28 26 26 21
-1 42 -2 47 -2 10 -1 9 -49 -2 -53 -5 -1 -3 -12 6 -23 9 -12 17 -15 19 -9 3 6
16 9 30 6 15 -3 23 -10 20 -18 -3 -7 1 -18 9 -24 11 -9 15 -1 20 44 7 53 9 56
36 56 22 0 29 -5 29 -20 0 -13 -5 -18 -15 -14 -8 4 -15 2 -15 -3 0 -14 69 -78
76 -71 3 4 -3 13 -15 20 -30 19 -26 26 14 25 29 -1 35 -4 33 -21 -2 -10 3 -21
10 -23 9 -3 12 11 12 52 0 48 3 56 16 51 10 -4 14 -1 12 6 -3 9 -34 14 -98 16
-93 3 -109 9 -110 40 0 9 7 11 21 7 15 -5 20 -3 17 6 -3 8 -17 15 -33 17 -26
3 -27 2 -23 -28z m18 -59 c0 -25 -14 -41 -36 -41 -25 0 -28 7 -18 34 6 17 54
23 54 7z m160 -20 c0 -11 -9 -23 -21 -26 -24 -8 -32 -2 -34 25 -1 16 5 20 27
20 21 0 28 -5 28 -19z"/>
<path d="M893 323 c-21 -7 -15 -33 7 -33 11 0 20 3 20 8 0 15 -15 29 -27 25z"/>
<path d="M1810 318 c-19 -5 -52 -14 -73 -19 -21 -5 -35 -14 -32 -19 3 -5 19
-5 38 1 40 11 37 12 37 -6 0 -8 -8 -15 -19 -15 -23 0 -45 -25 -36 -41 4 -6 21
-9 37 -7 19 3 32 0 35 -9 3 -7 11 -13 19 -13 10 0 11 6 4 24 -5 15 -5 27 3 35
19 19 29 12 23 -14 -7 -27 11 -36 20 -10 9 21 -15 46 -40 43 -13 -2 -22 3 -24
15 -3 12 3 17 22 17 25 0 43 15 29 23 -5 2 -24 0 -43 -5z m-33 -85 c-9 -9 -19
-14 -23 -11 -10 10 6 28 24 28 15 0 15 -1 -1 -17z"/>
<path d="M1490 130 c0 -7 8 -9 20 -5 12 4 20 2 20 -5 0 -13 -46 -10 -85 4 -20
8 -20 8 0 -9 27 -22 65 -30 84 -18 25 16 19 38 -11 41 -16 2 -28 -2 -28 -8z"/>
</g>
</svg>

