<?xml version="1.0" encoding="utf-8"?>
<!-- Generator: Adobe Illustrator 22.0.0, SVG Export Plug-In . SVG Version: 6.00 Build 0)  -->
<svg version="1.1" id="Layer_1" xmlns="http://www.w3.org/2000/svg" xmlns:xlink="http://www.w3.org/1999/xlink" x="0px" y="0px"
	 viewBox="0 0 400 300" style="enable-background:new 0 0 400 300;" xml:space="preserve">
<style type="text/css">
	.st0{fill:#13307E;stroke:#13307E;stroke-miterlimit:10;}
</style>
<g transform="translate(0.000000,300.000000) scale(0.100000,-0.100000)">
	<path class="st0" d="M1656.3,2743.7v-166.3h671.9c368.6,0,671.9-16.6,671.9-33.3c0-22.2-80.6-232.8-180.4-471.1l-184.3-432.3
		l-276.4-5.5h-280.3v-166.3v-166.3h345.5h341.7l276.4,681.8c153.6,371.4,303.3,731.7,334,803.7L3430,2910h-886.9h-886.9V2743.7z"/>
	<path class="st0" d="M850,2134v-166.3h403.1h403.1l7.7-981.1L1675.4,0l107.5,255c99.8,243.9,103.7,288.2,103.7,981.1v731.7h318.7
		c307.1,0,322.5,5.5,364.7,138.6c26.9,77.6,46.1,155.2,46.1,166.3c0,16.6-395.4,27.7-883,27.7H850V2134z"/>
</g>
</svg>
